#N canvas 598 41 682 466 12;
#X obj 53 29 inlet;
#X obj 55 72 sel 0;
#X obj 173 24 moses;
#X obj 158 65 t b b;
#X obj 209 96 t b;
#X msg 57 111 stop;
#X msg 62 211 0;
#X obj 109 212 pack 0 \$2;
#X obj 109 183 f \$1;
#X obj 288 149 inlet;
#X obj 331 149 inlet;
#X obj 375 148 inlet;
#X obj 420 149 inlet;
#X obj 224 218 del \$2;
#X obj 224 247 f \$4;
#X obj 222 282 * 0.01;
#X obj 290 253 * \$1;
#X obj 290 283 pack 0 \$3;
#X obj 388 284 pack 0 \$5;
#X obj 450 256 inlet;
#X obj 275 353 line~;
#X obj 275 377 outlet~;
#X connect 0 0 1 0;
#X connect 1 0 5 0;
#X connect 1 0 18 0;
#X connect 1 1 2 0;
#X connect 2 0 3 0;
#X connect 2 1 4 0;
#X connect 3 0 4 0;
#X connect 3 1 6 0;
#X connect 4 0 8 0;
#X connect 4 0 13 0;
#X connect 5 0 13 0;
#X connect 6 0 20 0;
#X connect 7 0 20 0;
#X connect 8 0 7 0;
#X connect 9 0 8 1;
#X connect 9 0 16 1;
#X connect 10 0 7 1;
#X connect 10 0 13 1;
#X connect 11 0 17 1;
#X connect 12 0 14 1;
#X connect 13 0 14 0;
#X connect 14 0 15 0;
#X connect 15 0 16 0;
#X connect 16 0 17 0;
#X connect 17 0 20 0;
#X connect 18 0 20 0;
#X connect 19 0 18 1;
#X connect 20 0 21 0;
