#N canvas 434 65 657 597 12;
#X obj 17 16 r voice-note-\$1;
#X obj 167 65 unpack 0 0;
#X obj 29 351 *~;
#X msg 15 70 all \$1 \$2;
#X obj 192 168 r amp-a;
#X obj 252 126 r amp-d;
#X obj 273 149 r amp-s;
#X obj 296 174 r amp-r;
#X obj 174 199 adsr 1 1 1 100 20;
#X obj 129 293 pow~ 2;
#X obj 370 108 / 127;
#X obj 406 142 *;
#X obj 452 109 f 1;
#X obj 463 147 -;
#X obj 431 181 +;
#X obj 390 77 t b;
#X obj 492 10 r amp-vel-snd;
#X obj 192 254 *~;
#X obj 453 214 sel;
#X obj 345 71 t b;
#X obj 503 190 sel 0;
#X msg 491 243 1;
#X obj 83 353 *~;
#X obj 29 451 throw~ outs1;
#X obj 45 423 throw~ outs2;
#X obj 29 390 *~ 0.3;
#X obj 83 391 *~ 0.3;
#X obj 13 122 sound gen here!!;
#X connect 0 0 1 0;
#X connect 0 0 3 0;
#X connect 1 1 8 0;
#X connect 1 1 10 0;
#X connect 1 1 19 0;
#X connect 2 0 25 0;
#X connect 3 0 27 0;
#X connect 4 0 8 2;
#X connect 5 0 8 3;
#X connect 6 0 8 4;
#X connect 7 0 8 5;
#X connect 8 0 17 0;
#X connect 9 0 2 1;
#X connect 9 0 22 1;
#X connect 10 0 11 0;
#X connect 11 0 14 0;
#X connect 12 0 13 0;
#X connect 13 0 14 1;
#X connect 13 0 18 1;
#X connect 14 0 18 0;
#X connect 15 0 12 0;
#X connect 15 0 10 0;
#X connect 16 0 11 1;
#X connect 16 0 13 1;
#X connect 16 0 15 0;
#X connect 16 0 20 0;
#X connect 17 0 9 0;
#X connect 18 1 17 1;
#X connect 19 0 10 0;
#X connect 20 0 21 0;
#X connect 21 0 17 1;
#X connect 22 0 26 0;
#X connect 25 0 23 0;
#X connect 26 0 24 0;
#X connect 27 0 2 0;
#X connect 27 1 22 0;
